<svg xmlns="http://www.w3.org/2000/svg" width="190" height="190" viewBox="0 0 190 190"><defs><style>.a{opacity:0.2;}.b{fill:#964b36;}.c{fill:#7e8283;}.d{fill:#d5bf86;}.e{fill:#fcb711;}.f{fill:#0065a5;}.g{fill:#c1282d;}</style></defs><g class="a" transform="translate(-683.942 -184.274)"><path class="b" d="M749.58,188.906a95.193,95.193,0,0,0-47.495,34.529l76.857,55.839Z"/><path class="c" d="M778.942,184.274a94.925,94.925,0,0,0-29.362,4.632l29.362,90.368Z"/><path class="d" d="M702.085,223.435a94.563,94.563,0,0,0-18.143,55.839h95Z"/><path class="e" d="M873.942,279.274a95,95,0,0,0-95-95v95l55.839,76.857A94.866,94.866,0,0,0,873.942,279.274Z"/><path class="f" d="M683.942,279.274a94.866,94.866,0,0,0,39.16,76.857l55.84-76.857Z"/><path class="g" d="M723.1,356.131a95,95,0,0,0,111.679,0l-55.839-76.857Z"/></g><g transform="translate(-683.942 -184.274)"><path class="b" d="M751.9,196.041a87.673,87.673,0,0,0-43.745,31.8l70.789,51.431Z"/><path class="c" d="M778.942,191.774a87.4,87.4,0,0,0-27.044,4.267l27.044,83.233Z"/><path class="d" d="M708.153,227.843a87.1,87.1,0,0,0-16.711,51.431h87.5Z"/><path class="e" d="M866.442,279.274a87.5,87.5,0,0,0-87.5-87.5v87.5l51.431,70.789A87.378,87.378,0,0,0,866.442,279.274Z"/><path class="f" d="M691.442,279.274a87.375,87.375,0,0,0,36.069,70.789l51.431-70.789Z"/><path class="g" d="M727.511,350.063a87.5,87.5,0,0,0,102.862,0l-51.431-70.789Z"/></g></svg>