<svg xmlns="http://www.w3.org/2000/svg" width="30" height="30" viewBox="0 0 30 30"><defs><style>.a{fill:none;}.b{fill:#fff;fill-rule:evenodd;}</style></defs><rect class="a" width="30" height="30"/><path class="b" d="M47.131,25.389c10.893,0,16.821-8.971,16.821-16.821v-.8a13.022,13.022,0,0,0,2.884-3.044,13.3,13.3,0,0,1-3.364.961,6.233,6.233,0,0,0,2.563-3.2A14.693,14.693,0,0,1,62.35,3.922,5.721,5.721,0,0,0,58.025,2,6.019,6.019,0,0,0,52.1,7.927a3.123,3.123,0,0,0,.16,1.282A16.563,16.563,0,0,1,40.083,2.961,6.135,6.135,0,0,0,39.282,6a6.365,6.365,0,0,0,2.563,4.966,5.4,5.4,0,0,1-2.723-.8h0a5.855,5.855,0,0,0,4.806,5.767,4.938,4.938,0,0,1-1.6.16,2.726,2.726,0,0,1-1.121-.16A6.069,6.069,0,0,0,46.811,20.1a12.1,12.1,0,0,1-7.369,2.563A4.435,4.435,0,0,1,38,22.505a15.121,15.121,0,0,0,9.131,2.884" transform="translate(-38 0.833)"/></svg>